# xmcd
#
# Track frame offsets:
#	150
#	13696
#	27019
#	42390
#	53150
#	63471
#	73827
#	84900
#	97659
#	115009
#	127280
#	146712
#	158475
#	166643
#	178141
#	190433
#
# Disc length: 2696 seconds
#
# Revision: 0
# Processed by: cddbd v1.5.2PL0 Copyright (c) Steve Scherf et al.
# Submitted via: SynApp - FreeCDDB Version: 2.3
#
DISCID=d30a8610
DTITLE=Various Artist - America, America
DYEAR=1987
DGENRE=Country
TTITLE0=Albert Hammond - New York City Here I Come
TTITLE1=Guy Mitchell - Pittsburgh, Pennsylvania
TTITLE2=Tom Jones - Detroit City
TTITLE3=Hank Snow - North To Chicago
TTITLE4=Wilbert Harrison - Kansas City
TTITLE5=Jimmy Young - The Man From Laramie
TTITLE6=Bobby Bare - Salt Lake City
TTITLE7=Tony Bennett - I Left My Heart In San Francisco
TTITLE8=Albert Hammond - 99 Miles From L.A.
TTITLE9=Glen Campbell - By The Time I Get To Phoenix
TTITLE10=Marty Robbins - El Paso
TTITLE11=Bobby Bare - Houston
TTITLE12=Fats Domino - Walking To New Orleans
TTITLE13=Johnny Rivers - Memphis
TTITLE14=Johny Cash and June Carter - Jackson
TTITLE15=Johnny Cash - The Lady Came From Baltimore
EXTD=
EXTT0=
EXTT1=
EXTT2=
EXTT3=
EXTT4=
EXTT5=
EXTT6=
EXTT7=
EXTT8=
EXTT9=
EXTT10=
EXTT11=
EXTT12=
EXTT13=
EXTT14=
EXTT15=
PLAYORDER=
